<?xml version="1.0" encoding="utf-8"?>
<!-- Generator: Adobe Illustrator 17.1.0, SVG Export Plug-In . SVG Version: 6.00 Build 0)  -->
<!DOCTYPE svg PUBLIC "-//W3C//DTD SVG 1.1//EN" "http://www.w3.org/Graphics/SVG/1.1/DTD/svg11.dtd">
<svg version="1.1" xmlns="http://www.w3.org/2000/svg" xmlns:xlink="http://www.w3.org/1999/xlink" x="0px" y="0px"
	 viewBox="0 0 64 64" enable-background="new 0 0 64 64" xml:space="preserve">
<g id="guide" display="none">
</g>
<g id="fill_outline">
	<g id="foggy_3_">
		<g>
			<path fill="#3EBBDD" d="M49,16c-0.017,0-0.034,0.003-0.051,0.003C48.979,15.672,49,15.338,49,15c0-6.075-4.925-11-11-11
				c-5.236,0-9.608,3.661-10.719,8.56C25.659,10.978,23.445,10,21,10c-4.971,0-9,4.029-9,9c0,0.355,0.026,0.703,0.066,1.047
				C6.982,20.519,3,24.792,3,30c0,5.523,4.477,10,10,10c3.465,0,6.517-1.763,8.312-4.441C22.467,40.398,26.808,44,32,44
				c4.396,0,8.178-2.585,9.94-6.312C43.922,39.136,46.357,40,49,40c6.627,0,12-5.373,12-12C61,21.373,55.627,16,49,16z"/>
			<path d="M32,45c-4.92,0-9.235-2.954-11.068-7.379C18.875,39.764,16.024,41,13,41C6.935,41,2,36.065,2,30
				c0-5.384,3.807-9.874,9.002-10.816C11.001,19.123,11,19.062,11,19c0-5.514,4.486-10,10-10c2.084,0,4.078,0.639,5.754,1.823
				C28.471,6.147,32.896,3,38,3c6.617,0,12,5.383,12,12c0,0.015,0,0.029,0,0.044C56.726,15.575,62,21.183,62,28
				c0,7.168-5.832,13-13,13c-2.379,0-4.673-0.644-6.697-1.869C40.155,42.729,36.227,45,32,45z M21.312,34.56
				c0.059,0,0.118,0.005,0.177,0.016c0.392,0.07,0.703,0.365,0.796,0.752C23.363,39.845,27.358,43,32,43
				c3.842,0,7.388-2.253,9.035-5.738c0.128-0.27,0.368-0.469,0.657-0.542c0.293-0.076,0.597-0.014,0.837,0.161
				C44.428,38.268,46.666,39,49,39c6.065,0,11-4.935,11-11s-4.935-11-11-11c-0.281,0-0.574-0.117-0.764-0.324
				c-0.189-0.208-0.309-0.484-0.283-0.764C47.98,15.611,48,15.309,48,15c0-5.514-4.486-10-10-10c-4.698,0-8.705,3.2-9.743,7.781
				c-0.08,0.354-0.345,0.636-0.692,0.738c-0.344,0.103-0.722,0.01-0.981-0.243C25.078,11.809,23.095,11,21,11c-4.411,0-8,3.589-8,8
				c0,0.316,0.024,0.627,0.059,0.934c0.031,0.268-0.048,0.535-0.217,0.744c-0.17,0.209-0.416,0.34-0.684,0.365
				C7.507,21.474,4,25.325,4,30c0,4.963,4.037,9,9,9c3.007,0,5.804-1.494,7.48-3.997C20.669,34.723,20.981,34.56,21.312,34.56z"/>
		</g>
		<rect x="12" y="47" width="18" height="2"/>
		<rect x="12" y="51" width="18" height="2"/>
		<rect x="12" y="55" width="18" height="2"/>
		<rect x="12" y="59" width="18" height="2"/>
		<rect x="34" y="47" width="18" height="2"/>
		<rect x="44" y="51" width="8" height="2"/>
		<rect x="40" y="51" width="2" height="2"/>
		<rect x="34" y="51" width="4" height="2"/>
		<rect x="34" y="55" width="18" height="2"/>
		<rect x="34" y="59" width="18" height="2"/>
	</g>
</g>
<g id="flat" display="none">
	<g id="foggy_1_" display="inline">
		<path fill="#3EBBDD" d="M50,15.044c0-0.015,0-0.029,0-0.044c0-6.617-5.383-12-12-12c-5.104,0-9.529,3.147-11.246,7.823
			C25.078,9.639,23.084,9,21,9c-5.514,0-10,4.486-10,10c0,0.062,0.001,0.123,0.002,0.184C5.807,20.126,2,24.616,2,30
			c0,6.065,4.935,11,11,11c3.024,0,5.875-1.236,7.932-3.379C22.765,42.046,27.08,45,32,45c4.227,0,8.155-2.271,10.303-5.869
			C44.327,40.356,46.621,41,49,41c7.168,0,13-5.832,13-13C62,21.183,56.726,15.575,50,15.044z"/>
		<rect x="12" y="47" fill="#CCCCCC" width="18" height="2"/>
		<rect x="12" y="51" fill="#CCCCCC" width="18" height="2"/>
		<rect x="12" y="55" fill="#CCCCCC" width="18" height="2"/>
		<rect x="12" y="59" fill="#CCCCCC" width="18" height="2"/>
		<rect x="34" y="47" fill="#CCCCCC" width="18" height="2"/>
		<rect x="44" y="51" fill="#CCCCCC" width="8" height="2"/>
		<rect x="40" y="51" fill="#CCCCCC" width="2" height="2"/>
		<rect x="34" y="51" fill="#CCCCCC" width="4" height="2"/>
		<rect x="34" y="55" fill="#CCCCCC" width="18" height="2"/>
		<rect x="34" y="59" fill="#CCCCCC" width="18" height="2"/>
		<path fill="#38A8C7" d="M57.918,18.572C54.064,27.441,40.341,34,24,34c-8.326,0-15.968-1.706-21.976-4.549
			C2.015,29.634,2,29.815,2,30c0,6.065,4.935,11,11,11c3.024,0,5.875-1.236,7.932-3.379C22.765,42.046,27.08,45,32,45
			c4.227,0,8.155-2.271,10.303-5.869C44.327,40.356,46.621,41,49,41c7.168,0,13-5.832,13-13C62,24.288,60.429,20.943,57.918,18.572z
			"/>
	</g>
</g>
<g id="outline__x28_Expand_x2F_Unite_x29_" display="none">
	<g id="foggy_2_" display="inline">
		<path d="M32,45c-4.92,0-9.235-2.954-11.068-7.379C18.875,39.764,16.024,41,13,41C6.935,41,2,36.065,2,30
			c0-5.384,3.807-9.874,9.002-10.816C11.001,19.123,11,19.062,11,19c0-5.514,4.486-10,10-10c2.084,0,4.078,0.639,5.754,1.823
			C28.471,6.147,32.896,3,38,3c6.617,0,12,5.383,12,12c0,0.015,0,0.029,0,0.044C56.726,15.575,62,21.183,62,28
			c0,7.168-5.832,13-13,13c-2.379,0-4.673-0.644-6.697-1.869C40.155,42.729,36.227,45,32,45z M21.312,34.56
			c0.059,0,0.118,0.005,0.177,0.016c0.392,0.07,0.703,0.365,0.796,0.752C23.363,39.845,27.358,43,32,43
			c3.842,0,7.388-2.253,9.035-5.738c0.128-0.27,0.368-0.469,0.657-0.542c0.293-0.076,0.597-0.014,0.837,0.161
			C44.428,38.268,46.666,39,49,39c6.065,0,11-4.935,11-11s-4.935-11-11-11c-0.281,0-0.574-0.117-0.764-0.324
			c-0.189-0.208-0.309-0.484-0.283-0.764C47.98,15.611,48,15.309,48,15c0-5.514-4.486-10-10-10c-4.698,0-8.705,3.2-9.743,7.781
			c-0.08,0.354-0.345,0.636-0.692,0.738c-0.344,0.103-0.722,0.01-0.981-0.243C25.078,11.809,23.095,11,21,11c-4.411,0-8,3.589-8,8
			c0,0.316,0.024,0.627,0.059,0.934c0.031,0.268-0.048,0.535-0.217,0.744c-0.17,0.209-0.416,0.34-0.684,0.365
			C7.507,21.474,4,25.325,4,30c0,4.963,4.037,9,9,9c3.007,0,5.804-1.494,7.48-3.997C20.669,34.723,20.981,34.56,21.312,34.56z"/>
		<rect x="12" y="47" width="18" height="2"/>
		<rect x="12" y="51" width="18" height="2"/>
		<rect x="12" y="55" width="18" height="2"/>
		<rect x="12" y="59" width="18" height="2"/>
		<rect x="34" y="47" width="18" height="2"/>
		<rect x="44" y="51" width="8" height="2"/>
		<rect x="40" y="51" width="2" height="2"/>
		<rect x="34" y="51" width="4" height="2"/>
		<rect x="34" y="55" width="18" height="2"/>
		<rect x="34" y="59" width="18" height="2"/>
	</g>
</g>
<g id="outline__x28_Non-Ex_x29_" display="none">
	<g id="foggy" display="inline">
		<path fill="none" stroke="#000000" stroke-width="2" stroke-linejoin="round" stroke-miterlimit="10" d="M49,16
			c-0.017,0-0.034,0.003-0.051,0.003C48.979,15.672,49,15.338,49,15c0-6.075-4.925-11-11-11c-5.236,0-9.608,3.661-10.719,8.56
			C25.659,10.978,23.445,10,21,10c-4.971,0-9,4.029-9,9c0,0.355,0.026,0.703,0.066,1.047C6.982,20.519,3,24.792,3,30
			c0,5.523,4.477,10,10,10c3.465,0,6.517-1.763,8.312-4.441C22.467,40.398,26.808,44,32,44c4.396,0,8.178-2.585,9.94-6.312
			C43.922,39.136,46.357,40,49,40c6.627,0,12-5.373,12-12C61,21.373,55.627,16,49,16z"/>
		<line fill="none" stroke="#000000" stroke-width="2" stroke-miterlimit="10" x1="12" y1="48" x2="30" y2="48"/>
		<line fill="none" stroke="#000000" stroke-width="2" stroke-miterlimit="10" x1="12" y1="52" x2="30" y2="52"/>
		<line fill="none" stroke="#000000" stroke-width="2" stroke-miterlimit="10" x1="12" y1="56" x2="30" y2="56"/>
		<line fill="none" stroke="#000000" stroke-width="2" stroke-miterlimit="10" x1="12" y1="60" x2="30" y2="60"/>
		<line fill="none" stroke="#000000" stroke-width="2" stroke-miterlimit="10" x1="34" y1="48" x2="52" y2="48"/>
		<line fill="none" stroke="#000000" stroke-width="2" stroke-miterlimit="10" x1="44" y1="52" x2="52" y2="52"/>
		<line fill="none" stroke="#000000" stroke-width="2" stroke-miterlimit="10" x1="40" y1="52" x2="42" y2="52"/>
		<line fill="none" stroke="#000000" stroke-width="2" stroke-miterlimit="10" x1="34" y1="52" x2="38" y2="52"/>
		<line fill="none" stroke="#000000" stroke-width="2" stroke-miterlimit="10" x1="34" y1="56" x2="52" y2="56"/>
		<line fill="none" stroke="#000000" stroke-width="2" stroke-miterlimit="10" x1="34" y1="60" x2="52" y2="60"/>
	</g>
</g>
<g id="tag" display="none">
</g>
</svg>
